<svg width="544" height="544" viewBox="0 0 544 544" fill="none" xmlns="http://www.w3.org/2000/svg">
<circle cx="272" cy="272" r="272" fill="#FF4500"/>
<path d="M272 126C282.067 126 290.2 134.128 290.2 144.188V180.562H363C383.077 180.562 399.4 196.874 399.4 216.938V380.625C399.4 400.688 383.077 417 363 417H181C160.923 417 144.6 400.688 144.6 380.625V216.938C144.6 196.874 160.923 180.562 181 180.562H253.8V144.188C253.8 134.128 261.933 126 272 126ZM208.3 344.25C203.295 344.25 199.2 348.342 199.2 353.344C199.2 358.345 203.295 362.438 208.3 362.438H226.5C231.505 362.438 235.6 358.345 235.6 353.344C235.6 348.342 231.505 344.25 226.5 344.25H208.3ZM262.9 344.25C257.895 344.25 253.8 348.342 253.8 353.344C253.8 358.345 257.895 362.438 262.9 362.438H281.1C286.105 362.438 290.2 358.345 290.2 353.344C290.2 348.342 286.105 344.25 281.1 344.25H262.9ZM317.5 344.25C312.495 344.25 308.4 348.342 308.4 353.344C308.4 358.345 312.495 362.438 317.5 362.438H335.7C340.705 362.438 344.8 358.345 344.8 353.344C344.8 348.342 340.705 344.25 335.7 344.25H317.5ZM240.15 271.5C240.15 258.939 229.969 248.766 217.4 248.766C204.831 248.766 194.65 258.939 194.65 271.5C194.65 284.061 204.831 294.234 217.4 294.234C229.969 294.234 240.15 284.061 240.15 271.5ZM326.6 294.234C339.169 294.234 349.35 284.061 349.35 271.5C349.35 258.939 339.169 248.766 326.6 248.766C314.031 248.766 303.85 258.939 303.85 271.5C303.85 284.061 314.031 294.234 326.6 294.234ZM117.3 253.312H126.4V362.438H117.3C102.228 362.438 90 350.218 90 335.156V280.594C90 265.532 102.228 253.312 117.3 253.312ZM426.7 253.312C441.772 253.312 454 265.532 454 280.594V335.156C454 350.218 441.772 362.438 426.7 362.438H417.6V253.312H426.7Z" fill="white"/>
</svg>
