<svg width="416" height="416" viewBox="0 0 416 416" fill="none" xmlns="http://www.w3.org/2000/svg">
<circle cx="208" cy="208" r="208" fill="#FF4500"/>
<path d="M102.789 241.158C93.3158 241.158 85.3158 237.895 78.7895 231.368C72.2632 224.842 69 216.842 69 207.368C69 197.895 72.2632 189.895 78.7895 183.368C85.3158 176.842 93.3158 173.579 102.789 173.579V134.737C102.789 129.684 104.684 125.263 108.474 121.474C112.263 117.684 116.684 115.789 121.737 115.789H174.158C174.158 106.316 177.421 98.3158 183.947 91.7895C190.474 85.2632 198.474 82 207.947 82C217.421 82 225.421 85.2632 231.947 91.7895C238.474 98.3158 241.737 106.316 241.737 115.789H294.158C299.211 115.789 303.632 117.684 307.421 121.474C311.211 125.263 313.105 129.684 313.105 134.737V173.579C322.579 173.579 330.579 176.842 337.105 183.368C343.632 189.895 346.895 197.895 346.895 207.368C346.895 216.842 343.632 224.842 337.105 231.368C330.579 237.895 322.579 241.158 313.105 241.158V303.053C313.105 308.105 311.211 312.526 307.421 316.316C303.632 320.105 299.211 322 294.158 322H121.737C116.684 322 112.263 320.105 108.474 316.316C104.684 312.526 102.789 308.105 102.789 303.053V241.158ZM164.684 209.579C168.263 209.579 171.263 208.368 173.684 205.947C176.105 203.526 177.316 200.526 177.316 196.947C177.316 193.368 176.105 190.368 173.684 187.947C171.263 185.526 168.263 184.316 164.684 184.316C161.105 184.316 158.105 185.526 155.684 187.947C153.263 190.368 152.053 193.368 152.053 196.947C152.053 200.526 153.263 203.526 155.684 205.947C158.105 208.368 161.105 209.579 164.684 209.579ZM251.211 209.579C254.79 209.579 257.79 208.368 260.211 205.947C262.632 203.526 263.842 200.526 263.842 196.947C263.842 193.368 262.632 190.368 260.211 187.947C257.79 185.526 254.79 184.316 251.211 184.316C247.632 184.316 244.632 185.526 242.211 187.947C239.79 190.368 238.579 193.368 238.579 196.947C238.579 200.526 239.79 203.526 242.211 205.947C244.632 208.368 247.632 209.579 251.211 209.579ZM154.895 269.895H261V250.947H154.895V269.895Z" fill="white"/>
</svg>
